HIERARCHY
ROOT root
{
	OFFSET 0.000000 0.000000 0.000000
	CHANNELS 6 Xposition Yposition Zposition Zrotation Yrotation Xrotation
	JOINT lhip
	{
		OFFSET 0.058581 -0.082280 -0.017664
		CHANNELS 3 Zrotation Yrotation Xrotation
		JOINT lknee
		{
			OFFSET 0.043451 -0.386469 0.008037
			CHANNELS 3 Zrotation Yrotation Xrotation
			JOINT lankle
			{
				OFFSET -0.014790 -0.426874 -0.037428
				CHANNELS 3 Zrotation Yrotation Xrotation
				JOINT ltoe
				{
					OFFSET 0.041054 -0.060286 0.122042
					CHANNELS 3 Zrotation Yrotation Xrotation
					End Site
					{
						OFFSET 0.000000 0.000000 0.000000
					}
				}
			}
		}
	}
	JOINT rhip
	{
		OFFSET -0.060310 -0.090513 -0.013543
		CHANNELS 3 Zrotation Yrotation Xrotation
		JOINT rknee
		{
			OFFSET -0.043257 -0.383688 -0.004843
			CHANNELS 3 Zrotation Yrotation Xrotation
			JOINT rankle
			{
				OFFSET 0.019056 -0.420046 -0.034562
				CHANNELS 3 Zrotation Yrotation Xrotation
				JOINT rtoe
				{
					OFFSET -0.034840 -0.062106 0.130323
					CHANNELS 3 Zrotation Yrotation Xrotation
					End Site
					{
						OFFSET 0.000000 0.000000 0.000000
					}
				}
			}
		}
	}
	JOINT lowerback
	{
		OFFSET 0.004439 0.124404 -0.038385
		CHANNELS 3 Zrotation Yrotation Xrotation
		JOINT upperback
		{
			OFFSET 0.004488 0.137956 0.026820
			CHANNELS 3 Zrotation Yrotation Xrotation
			JOINT chest
			{
				OFFSET -0.002265 0.056032 0.002855
				CHANNELS 3 Zrotation Yrotation Xrotation
				JOINT lowerneck
				{
					OFFSET -0.013390 0.211636 -0.033468
					CHANNELS 3 Zrotation Yrotation Xrotation
					JOINT upperneck
					{
						OFFSET 0.010113 0.088937 0.050410
						CHANNELS 3 Zrotation Yrotation Xrotation
						End Site
						{
							OFFSET 0.000000 0.000000 0.000000
						}
					}
				}
				JOINT lclavicle
				{
					OFFSET 0.071702 0.114000 -0.018898
					CHANNELS 3 Zrotation Yrotation Xrotation
					JOINT lshoulder
					{
						OFFSET 0.122921 0.045205 -0.019046
						CHANNELS 3 Zrotation Yrotation Xrotation
						JOINT lelbow
						{
							OFFSET 0.255332 -0.015649 -0.022946
							CHANNELS 3 Zrotation Yrotation Xrotation
							JOINT lwrist
							{
								OFFSET 0.265709 0.012698 -0.007375
								CHANNELS 3 Zrotation Yrotation Xrotation
								End Site
								{
									OFFSET 0.000000 0.000000 0.000000
								}
							}
						}
					}
				}
				JOINT rclavicle
				{
					OFFSET -0.082954 0.112472 -0.023707
					CHANNELS 3 Zrotation Yrotation Xrotation
					JOINT rshoulder
					{
						OFFSET -0.113228 0.046853 -0.008472
						CHANNELS 3 Zrotation Yrotation Xrotation
						JOINT relbow
						{
							OFFSET -0.260127 -0.014369 -0.031269
							CHANNELS 3 Zrotation Yrotation Xrotation
							JOINT rwrist
							{
								OFFSET -0.269108 0.006794 -0.006027
								CHANNELS 3 Zrotation Yrotation Xrotation
								End Site
								{
									OFFSET 0.000000 0.000000 0.000000
								}
							}
						}
					}
				}
			}
		}
	}
}
MOTION
Frames: 10
Frame Time: 0.033333
0.100165 -0.093462 0.992522 -28.196200 -0.230002 83.836223 13.871938 10.786617 5.926200 -1.594519 14.691246 9.518043 -0.846064 11.246311 -15.736020 0.000000 -0.000000 0.000000 -12.868707 -9.519878 1.716126 -0.243411 -10.256154 11.235888 6.822704 -2.862946 -11.985023 0.000000 -0.000000 0.000000 0.773434 0.665492 -0.251005 0.136128 -1.118045 6.514214 -0.460663 -0.321983 -0.923290 3.799016 13.415256 -1.030088 -2.396782 12.469111 4.819030 -34.805311 1.694629 2.576018 -44.879246 -5.311722 8.432005 30.768172 -69.892388 -7.616893 10.524107 -12.216039 8.151086 34.262148 3.534234 6.573428 44.364548 10.538038 15.644059 -18.036373 68.057314 -1.517851 -1.894230 8.626652 -1.286321 
0.100148 -0.093425 0.992548 -28.175629 -0.203530 83.618631 13.987881 10.797770 6.187716 -1.656306 14.543362 9.616108 -1.618274 11.416796 -16.194585 0.000000 -0.000000 0.000000 -12.911229 -9.950323 2.017130 -0.277374 -9.987452 11.142536 6.932579 -2.629991 -11.976517 0.000000 -0.000000 0.000000 0.784388 0.634543 -0.296601 0.161632 -1.395178 6.618617 -0.571733 0.005304 -0.412733 3.805752 13.337955 -1.662670 -2.516026 12.319661 5.246982 -34.411397 1.822874 2.277271 -45.195750 -5.686430 8.294709 29.508119 -69.985450 -6.040874 10.944216 -12.665240 7.708134 34.489649 3.476745 6.168515 44.307020 11.091499 15.310676 -18.311749 68.319170 -1.053785 -3.700060 11.228115 0.557571 
0.100405 -0.092917 0.992643 -28.215547 -0.181826 83.515930 14.052479 10.743893 6.233753 -1.701145 14.371544 9.749325 -2.506339 11.509010 -16.984442 0.000000 -0.000000 0.000000 -12.920435 -10.029347 2.151707 -0.261358 -9.986628 11.005663 7.011429 -2.491989 -11.940053 0.000000 -0.000000 0.000000 0.824199 0.618577 -0.608283 0.215762 -1.737621 7.278786 -0.743334 0.329291 -0.357423 3.773980 13.437802 -1.824383 -2.474244 12.155731 5.192512 -34.178110 1.637101 2.320682 -45.450877 -5.738612 8.234067 30.419915 -70.008416 -6.606069 11.294914 -12.751223 7.386858 34.465200 3.805906 6.180556 44.453860 11.198185 15.101411 -19.435754 68.402444 -1.601603 -4.269665 12.456211 1.137004 
0.100950 -0.091815 0.993094 -28.432198 -0.105313 83.610680 14.123783 10.814610 6.047810 -1.704397 14.439109 9.808213 -2.594433 11.578648 -16.934558 0.000000 -0.000000 0.000000 -12.761871 -10.068912 1.890615 -0.283496 -9.951738 10.971663 7.007210 -2.350261 -11.844618 0.000000 -0.000000 0.000000 0.955332 0.630456 -0.683730 0.207362 -1.623836 7.285838 -0.793631 0.399146 -0.373022 3.782392 13.371087 -1.761796 -2.530939 12.007811 5.082452 -34.229313 1.831840 2.116107 -45.443522 -5.724155 8.318383 30.505861 -70.118459 -6.583121 11.388157 -12.591243 7.275463 34.392389 3.701580 6.129376 44.570731 11.176388 15.175290 -19.408414 68.351429 -1.494825 -4.417720 12.381551 1.038307 
0.101307 -0.091230 0.993345 -28.540839 -0.075012 83.650212 14.148265 10.824954 5.982080 -1.718785 14.513577 9.797802 -2.588781 11.574716 -16.913527 0.000000 -0.000000 0.000000 -12.662037 -10.025735 1.791916 -0.307789 -9.958319 10.890220 6.976016 -2.365939 -11.749940 0.000000 -0.000000 0.000000 1.012070 0.624464 -0.724835 0.204155 -1.540022 7.276133 -0.815987 0.431208 -0.328284 3.727088 13.357487 -1.831881 -2.537504 11.993943 5.003472 -34.238162 1.927132 1.959689 -45.423336 -5.776407 8.370494 30.338369 -70.132149 -6.439462 11.329246 -12.614773 7.255212 34.416824 3.583796 6.135269 44.534833 11.249849 15.190326 -19.381087 68.393086 -1.447900 -4.483843 12.293215 1.010816 
0.101724 -0.090437 0.993523 -28.599447 -0.040549 83.597016 14.182566 10.763163 6.007975 -1.718542 14.601572 9.736691 -2.630118 11.586015 -16.813390 0.000000 -0.000000 0.000000 -12.585234 -9.929557 1.866596 -0.300513 -9.989638 10.672831 6.945233 -2.408587 -11.630946 0.000000 -0.000000 0.000000 1.031859 0.597913 -0.711133 0.215461 -1.511928 7.334230 -0.800202 0.436325 -0.282574 3.682771 13.432576 -1.907090 -2.531542 12.005820 5.031237 -34.277522 1.901553 1.924052 -45.431558 -5.781199 8.315325 30.712520 -70.102049 -6.725641 11.212467 -12.688056 7.268383 34.503532 3.541683 6.138765 44.377260 11.294806 15.125124 -19.318670 68.459782 -1.328433 -4.505301 12.277697 0.892513 
0.102308 -0.089457 0.993617 -28.658946 -0.026229 83.633412 14.136231 10.723295 5.935049 -1.675817 14.668942 9.634796 -2.591825 11.635126 -16.723531 0.000000 -0.000000 0.000000 -12.565004 -9.917136 1.754316 -0.266486 -10.010514 10.583139 6.950268 -2.365763 -11.528287 0.000000 -0.000000 0.000000 0.992491 0.581660 -0.735194 0.249892 -1.489917 7.338274 -0.753403 0.434433 -0.268469 3.801365 13.515964 -1.923712 -2.575371 11.997469 5.109938 -34.357321 1.961141 1.924695 -45.467419 -5.782191 8.287991 31.161736 -70.094875 -7.108762 10.977308 -12.860659 7.423664 34.578965 3.476095 6.142337 44.189291 11.387719 15.111815 -19.282200 68.424645 -1.340323 -4.322634 12.372584 0.812576 
0.102845 -0.088490 0.993830 -28.709182 0.036628 83.617435 14.172627 10.759313 5.881963 -1.641657 14.635043 9.626280 -2.523017 11.652664 -16.775280 0.000000 -0.000000 0.000000 -12.495365 -9.985795 1.651495 -0.237181 -9.916095 10.592985 6.952776 -2.328689 -11.473404 0.000000 -0.000000 0.000000 1.024036 0.585883 -0.679605 0.298395 -1.514917 7.309642 -0.729828 0.391549 -0.283032 3.892874 13.606688 -1.953157 -2.624861 12.023469 5.218075 -34.400736 2.058821 1.958498 -45.474210 -5.716516 8.292951 31.424991 -70.192918 -7.298706 11.124888 -12.614756 7.349409 34.645294 3.418287 6.039891 44.052879 11.419312 15.193842 -19.319596 68.372087 -1.411043 -4.705031 12.278987 0.861538 
0.103248 -0.087574 0.993907 -28.669013 0.054516 83.550922 14.195537 10.780633 5.870419 -1.648148 14.513558 9.613795 -2.499866 11.681480 -16.701680 0.000000 -0.000000 0.000000 -12.479965 -9.913917 1.726636 -0.185081 -9.897612 10.486603 6.927085 -2.439154 -11.415699 0.000000 -0.000000 0.000000 0.970313 0.530184 -0.531542 0.333200 -1.552031 7.227591 -0.706640 0.356192 -0.282324 3.960482 13.576458 -2.021288 -2.702392 11.975834 5.407949 -34.394167 2.097980 1.985128 -45.446632 -5.686925 8.282688 31.477539 -70.235914 -7.352829 11.377358 -12.530935 7.260708 34.718360 3.451267 5.945291 43.975457 11.409847 15.262110 -19.394370 68.321299 -1.569348 -5.091678 12.235708 0.985655 
0.103755 -0.086262 0.994056 -28.615887 0.110831 83.463746 14.264139 10.865984 5.874341 -1.632175 14.408225 9.545226 -2.593336 11.574881 -16.632961 0.000000 -0.000000 0.000000 -12.432275 -9.928411 1.816385 -0.158205 -10.027442 10.366048 6.954836 -2.339921 -11.287081 0.000000 -0.000000 0.000000 0.916923 0.491549 -0.219076 0.365450 -1.563519 7.034778 -0.642996 0.336246 -0.312740 4.068921 13.669166 -2.057239 -2.669225 11.976097 5.610989 -34.413909 2.158504 1.895822 -45.371576 -5.661451 8.253861 31.310939 -70.310293 -7.191139 11.153551 -12.525611 7.428836 34.689470 3.362072 5.885006 44.035845 11.473779 15.171171 -19.080980 68.324192 -1.279856 -4.563935 12.189062 0.873222 
